<?xml version="1.0" encoding="UTF-8"?>
<svg id="Layer_1" data-name="Layer 1" xmlns="http://www.w3.org/2000/svg" viewBox="0 0 147.68 31.98">
  <defs>
    <style>
      .cls-1 {
        fill: #00304e;
      }

      .cls-1, .cls-2 {
        stroke-width: 0px;
      }

      .cls-2 {
        fill: #009df1;
      }
    </style>
  </defs>
  <g>
    <path class="cls-1" d="M39.11,8.13v15.79h-2.41v-6.9h-5.12v6.9h-2.39v-11.84l3.81-3.95h6.11ZM31.58,14.78h5.12v-4.42h-2.82l-2.3,2.39v2.03Z"/>
    <path class="cls-1" d="M52.96,11.65v12.27h-2.37v-.86l-1.47.86h-4.76l-1.96-2.91v-9.36h2.41v8.95l.72,1.06h4.51l.5-.52v-9.49h2.41Z"/>
    <path class="cls-1" d="M58.15,7.05h2.41v4.58h3.65v2.23h-3.65v6.74l.72,1.06h2.01l1.53-1.51,1.26,1.85-1.78,1.92h-4.22l-1.94-2.86v-7.19h-1.8v-2.23h1.8v-4.58Z"/>
    <path class="cls-1" d="M71.48,11.65h6.65l1.94,2.91v7.31l-1.98,2.05h-6.63l-1.96-2.91v-7.31l1.98-2.05ZM71.88,20.6l.74,1.08h4.51l.5-.54v-6.2l-.72-1.08h-4.51l-.52.56v6.18Z"/>
    <path class="cls-1" d="M93.58,8.13v15.79h-2.41v-.88l-1.44.88h-4.78l-1.96-2.91v-12.88h2.41v12.45l.72,1.11h4.51l.54-.56v-12.99h2.41Z"/>
    <path class="cls-1" d="M98.95,11.65v.86l1.44-.86h4.76l1.96,2.89v9.38h-2.41v-8.98l-.72-1.08h-4.53l-.5.56v9.49h-2.41v-12.27h2.41Z"/>
    <path class="cls-1" d="M114.57,11.22l1.94,2.89v7.62h4.1v2.19h-10.55v-2.19h4.1v-7.24l-.74-1.08h-2.44v-2.19h3.59ZM116.76,8.56v-2.84h-2.84v2.84h2.84Z"/>
    <path class="cls-1" d="M132.86,8.13l1.31,1.89-1.58,1.62-.88-1.29h-3.09l-.81.83v3.18h3.9v2.21h-3.9v7.33h-2.41v-7.33h-1.8v-2.21h1.8v-3.95l2.23-2.3h5.23Z"/>
    <path class="cls-1" d="M147.68,11.63v13.19l-3.83,3.99h-6.72v-2.26h5.73l2.41-2.44v-.2h-5.75l-2.39-3.54v-8.75h2.41v8.34l1.17,1.71h4.56v-10.06h2.41Z"/>
  </g>
  <g>
    <polygon class="cls-2" points="14.73 23.41 12.47 23.41 12.47 2.93 11.94 2.26 4.22 2.26 2.26 5.75 2.26 23.41 0 23.41 0 5.16 2.89 0 13.03 0 14.73 2.14 14.73 23.41"/>
    <polygon class="cls-2" points="19.26 31.98 9.13 31.98 6.24 26.82 6.24 8.56 8.5 8.56 8.5 26.23 10.45 29.72 18.18 29.72 18.71 29.05 18.71 8.56 20.97 8.56 20.97 29.84 19.26 31.98"/>
  </g>
</svg>